<svg viewBox="0 0 1000 1000" width="800" height="800" xmlns="http://www.w3.org/2000/svg">
  <g transform="translate(492.3941931603867, 500.98163798234833)">
    <path
      id="blob-3"
      d="M206.7 -262.2C262.2 -199.8 297.5 -129.3 318.8 -50.1C340 29 347.1 116.8 320.1 204.9C293.1 292.9 232.1 381.4 155.8 394.8C79.5 408.1 -12.1 346.4 -105 305.3C-197.8 264.2 -292 243.6 -315.8 188.9C-339.6 134.2 -292.9 45.4 -279.2 -52.2C-265.5 -149.7 -284.8 -256 -243.7 -321C-202.7 -385.9 -101.3 -409.4 -12.9 -394.1C75.6 -378.8 151.3 -324.6 206.7 -262.2"
      fill="url(#blob-gradient-1)"
    />
  </g>

  <g transform="translate(532.7552035594717, 547.760168954994)" style="visibility: hidden;">
    <path
      id="blob-4"
      d="M160 -201.7C201.7 -118.3 225.8 -59.2 231.3 5.4C236.7 70 223.3 140 181.7 199.2C140 258.3 70 306.7 2.1 304.5C-65.8 302.4 -131.5 249.9 -188.5 190.7C-245.5 131.5 -293.8 65.8 -297.7 -3.9C-301.5 -73.5 -261.1 -147.1 -204.1 -230.4C-147.1 -313.7 -73.5 -406.9 -7.2 -399.7C59.2 -392.5 118.3 -285 160 -201.7"
    />
  </g>
</svg>